<svg width="218" height="37" viewBox="0 0 218 37" fill="none" xmlns="http://www.w3.org/2000/svg">
<g filter="url(#filter0_d_1_420)">
<path d="M39.8101 16.5C39.8101 23.4 45.4101 29 52.3101 29C59.2101 29 64.8101 23.4 64.8101 16.5V4H52.3101C45.4101 4 39.8101 9.6 39.8101 16.5ZM57.4 9.85986H58.4601L53.9801 15.0698L58.8601 22.1699H55.27L51.9901 17.3901L47.88 22.1699H46.8201L51.52 16.6997L46.8201 9.85986H50.41L53.52 14.3901L57.41 9.85986H57.4Z" fill="white"/>
<path d="M48.37 10.73L52.16 16.1499L52.63 16.8398L55.88 21.48H57.51L53.54 15.79L53.0601 15.1099L50 10.73H48.37Z" fill="white"/>
<path d="M83.29 13.48V18.8999C83.29 20.4399 84.5501 21.6997 86.0901 21.6997H91.51C93.05 21.6997 94.3101 20.4399 94.3101 18.8999V13.48C94.3101 11.94 93.05 10.6802 91.51 10.6802H86.0901C84.5501 10.6802 83.29 11.94 83.29 13.48ZM92.4 11.8198C92.84 11.8198 93.2001 12.1801 93.2001 12.6201C93.2001 13.0601 92.84 13.4199 92.4 13.4199C91.96 13.4199 91.6001 13.0601 91.6001 12.6201C91.6001 12.1801 91.96 11.8198 92.4 11.8198ZM88.8601 12.8398C90.7001 12.8398 92.2001 14.3402 92.2001 16.1802C92.2001 18.0202 90.7001 19.52 88.8601 19.52C87.0201 19.52 85.52 18.0202 85.52 16.1802C85.52 14.3402 87.0201 12.8398 88.8601 12.8398Z" fill="white"/>
<path d="M88.8601 18.3301C90.0401 18.3301 91 17.3699 91 16.1899C91 15.0099 90.0401 14.0498 88.8601 14.0498C87.6801 14.0498 86.7201 15.0099 86.7201 16.1899C86.7201 17.3699 87.6801 18.3301 88.8601 18.3301Z" fill="white"/>
<path d="M76 16.5C76 23.4 81.6 29 88.5 29C95.4 29 101 23.4 101 16.5V4H88.5C81.6 4 76 9.6 76 16.5ZM95.5901 13.48V18.8999C95.5901 21.1499 93.76 22.98 91.51 22.98H86.0901C83.8401 22.98 82.01 21.1499 82.01 18.8999V13.48C82.01 11.23 83.8401 9.3999 86.0901 9.3999H91.51C93.76 9.3999 95.5901 11.23 95.5901 13.48Z" fill="white"/>
<path d="M126.61 16.4104L123.42 14.6701C123.29 14.6001 122.84 14.6901 122.84 14.8401V18.2302C122.84 18.3802 123.28 18.4701 123.41 18.4001L126.74 16.7502C126.88 16.6802 126.74 16.4804 126.6 16.4104H126.61Z" fill="white"/>
<path d="M124.49 4C117.59 4 111.99 9.6 111.99 16.5C111.99 23.4 117.59 29 124.49 29C131.39 29 136.99 23.4 136.99 16.5V4H124.49ZM131.12 18.23C131.12 19.84 129.82 21.1401 128.21 21.1401H120.77C119.16 21.1401 117.86 19.84 117.86 18.23V14.77C117.86 13.16 119.16 11.8599 120.77 11.8599H128.21C129.82 11.8599 131.12 13.16 131.12 14.77V18.23Z" fill="white"/>
<path d="M126.75 16.75L123.42 18.3999C123.29 18.4699 122.85 18.38 122.85 18.23V14.8398C122.85 14.6898 123.3 14.5899 123.43 14.6699L126.62 16.4101C126.75 16.4901 126.89 16.68 126.76 16.75H126.75Z" fill="white"/>
<path d="M4 16.5C4 23.4 9.6 29 16.5 29C23.4 29 29 23.4 29 16.5V4H16.5C9.6 4 4 9.6 4 16.5ZM20.8501 8.52002V10.9697H19.6001C18.3701 10.9697 17.9801 11.74 17.9801 12.52V14.3799H20.7401L20.3 17.25H17.9801V24.1899H14.88V17.25H12.3601V14.3799H14.88V12.1899C14.88 9.69994 16.36 8.31982 18.63 8.31982C19.72 8.31982 20.8501 8.50977 20.8501 8.50977V8.52002Z" fill="white"/>
<path d="M158.78 20.0098C159.874 20.0098 160.76 19.0874 160.76 17.9497C160.76 16.812 159.874 15.8901 158.78 15.8901C157.687 15.8901 156.8 16.812 156.8 17.9497C156.8 19.0874 157.687 20.0098 158.78 20.0098Z" fill="white"/>
<path d="M160.44 4C153.54 4 147.94 9.6 147.94 16.5C147.94 23.4 153.54 29 160.44 29C167.34 29 172.94 23.4 172.94 16.5V4H160.44ZM158.97 22.3198C158.23 22.3198 157.51 22.1398 156.87 21.7798V22.1001H154.41V10.8501H156.87V14.1001C157.51 13.7501 158.23 13.5601 158.97 13.5601C161.38 13.5601 163.35 15.5199 163.35 17.9399C163.35 20.3599 161.39 22.3198 158.97 22.3198ZM166.48 23.0098H165.18V9.98975H166.48V23.0098Z" fill="white"/>
<path d="M197.13 4C190.23 4 184.63 9.6 184.63 16.5C184.63 23.4 190.23 29 197.13 29C204.03 29 209.63 23.4 209.63 16.5V4H197.13ZM202.21 15.3701V22.7998H198.61V17.4399H195.66V22.7998H192.06V15.3701H189.7L197.14 9.16016L204.58 15.3701H202.22H202.21Z" fill="white"/>
</g>
<defs>
<filter id="filter0_d_1_420" x="0" y="0" width="217.63" height="37" filterUnits="userSpaceOnUse" color-interpolation-filters="sRGB">
<feFlood flood-opacity="0" result="BackgroundImageFix"/>
<feColorMatrix in="SourceAlpha" type="matrix" values="0 0 0 0 0 0 0 0 0 0 0 0 0 0 0 0 0 0 127 0" result="hardAlpha"/>
<feOffset dx="2" dy="2"/>
<feGaussianBlur stdDeviation="3"/>
<feColorMatrix type="matrix" values="0 0 0 0 0 0 0 0 0 0 0 0 0 0 0 0 0 0 0.3 0"/>
<feBlend mode="normal" in2="BackgroundImageFix" result="effect1_dropShadow_1_420"/>
<feBlend mode="normal" in="SourceGraphic" in2="effect1_dropShadow_1_420" result="shape"/>
</filter>
</defs>
</svg>
