<svg width="20" height="20" viewBox="0 0 20 20" fill="none" xmlns="http://www.w3.org/2000/svg">
<path d="M10 20C4.49 20 0 15.51 0 10C0 4.49 4.49 0 10 0C15.51 0 20 4.49 20 10C20 15.51 15.51 20 10 20ZM10 1.57007C5.35 1.57007 1.56995 5.35 1.56995 10C1.56995 14.65 5.35 18.4299 10 18.4299C14.65 18.4299 18.4299 14.65 18.4299 10C18.4299 5.35 14.65 1.57007 10 1.57007Z" fill="#7A7A7A"/>
<path d="M10 10.79C9.9 10.79 9.79995 10.77 9.69995 10.73C9.40995 10.61 9.21997 10.32 9.21997 10V3.86011C9.21997 3.43011 9.57001 3.07007 10.01 3.07007C10.45 3.07007 10.7999 3.42011 10.7999 3.86011V8.1001L12.7699 6.12988C13.0799 5.81988 13.57 5.81988 13.88 6.12988C14.19 6.43988 14.19 6.92999 13.88 7.23999L10.5699 10.55C10.4199 10.7 10.22 10.78 10.01 10.78L10 10.79Z" fill="#7A7A7A"/>
</svg>
