<svg width="15" height="18" viewBox="0 0 15 18" fill="none" xmlns="http://www.w3.org/2000/svg">
<path d="M14.77 2.83984L11.4601 0.149902C11.3401 0.0499023 11.2 0 11.04 0H3.64001C3.29001 0 3.03003 0.250098 3.03003 0.600098V14.8501C3.03003 15.2101 3.29001 15.46 3.64001 15.46H14.41C14.76 15.46 15 15.1998 15 14.8398V3.32031C15 3.12031 14.92 2.95984 14.77 2.83984Z" fill="white"/>
<path d="M3.63 16.3501C2.8 16.3501 2.14001 15.7101 2.14001 14.8701V2.4502H0.619995C0.279995 2.4502 0.01 2.69029 0 3.05029V17.3101C0 17.6601 0.250098 17.9302 0.600098 17.9302H11.4C11.74 17.9302 11.9801 17.6403 11.9801 17.3203V16.3701H3.64001L3.63 16.3501Z" fill="white"/>
</svg>
