<svg width="104" height="65" viewBox="0 0 104 65" fill="none" xmlns="http://www.w3.org/2000/svg">
<path d="M76.0901 36.52C75.3501 35.75 75.4901 34.38 75.4901 33.51V30.26H88.4501V24.54H69.4501V37.58C69.4501 37.58 69.36 40.11 71.02 41.85C72.1 42.98 73.6801 43.55 75.7101 43.55H88.4501V37.51H78.5501C77.4601 37.51 76.6801 37.13 76.0901 36.52Z" fill="#FFF000"/>
<path d="M13.1901 30.08H20.5801V24.54H0.560059V30.08H7.6001L0 37.46L4.09009 41.55L8.21008 37.43L10.52 34.94L12.9601 37.45L17.05 41.55L21.14 37.45L13.1901 30.08Z" fill="#FFF000"/>
<path d="M46.4401 41.5599C51.4301 41.5599 55.5 37.4999 55.5 32.4999C55.5 27.4999 51.4401 23.4399 46.4401 23.4399C41.4401 23.4399 37.38 27.4999 37.38 32.4999C37.38 37.4999 41.4401 41.5599 46.4401 41.5599ZM46.4401 28.6499C48.5701 28.6499 50.3 30.3799 50.3 32.5099C50.3 34.6399 48.5701 36.3699 46.4401 36.3699C44.3101 36.3699 42.5801 34.6399 42.5801 32.5099C42.5801 30.3799 44.3101 28.6499 46.4401 28.6499Z" fill="#FFF000"/>
<path d="M53.92 45.38H53.8601H36.9501V51.17L53.67 51.24C53.77 51.24 53.88 51.17 54.02 51.17C55.47 51.17 59.14 50.89 61.92 48.26C63.32 46.94 64.9901 44.5 64.9901 40.41V24.54H59.2001V40.41C59.2001 42.05 58.8001 43.23 57.9701 44.03C56.6001 45.35 54.3 45.39 54.05 45.39C54 45.39 53.95 45.39 53.91 45.39L53.92 45.38Z" fill="#FFF000"/>
<path d="M27.0801 24.54V30.24H21.54V36H27.0801V45.25H23.0601C17.6501 45.25 13.25 49.65 13.25 55.06C13.25 60.47 17.6501 64.87 23.0601 64.87C28.4701 64.87 32.87 60.47 32.87 55.06V24.54H27.0801ZM27.0801 51.48V55.05C27.0801 57.27 25.2801 59.0701 23.0601 59.0701C20.8401 59.0701 19.04 57.27 19.04 55.05C19.04 52.83 20.8401 51.03 23.0601 51.03H27.0801V51.47V51.48Z" fill="#FFF000"/>
<path d="M103.75 30.24H98.28V24.54H92.4901V45.25H88.4701C83.0601 45.25 78.66 49.65 78.66 55.06C78.66 60.47 83.0601 64.87 88.4701 64.87C93.8801 64.87 98.28 60.47 98.28 55.06V36H103.75V30.24ZM92.4901 51.48V55.05C92.4901 57.27 90.6901 59.0701 88.4701 59.0701C86.2501 59.0701 84.4501 57.27 84.4501 55.05C84.4501 52.83 86.2501 51.03 88.4701 51.03H92.4901V51.47V51.48Z" fill="#FFF000"/>
<path d="M61.55 21.48L49.52 9.45L53.5801 5.39L61.55 13.37L74.91 0L78.9701 4.06L61.55 21.48Z" fill="white"/>
</svg>
