<svg width="20" height="20" viewBox="0 0 20 20" fill="none" xmlns="http://www.w3.org/2000/svg">
<path d="M10 20C4.49 20 0 15.51 0 10C0 4.49 4.49 0 10 0C15.51 0 20 4.49 20 10C20 15.51 15.51 20 10 20ZM10 1.56982C5.35 1.56982 1.57007 5.35 1.57007 10C1.57007 14.65 5.35 18.4299 10 18.4299C14.65 18.4299 18.4301 14.65 18.4301 10C18.4301 5.35 14.65 1.56982 10 1.56982Z" fill="#7A7A7A"/>
<path d="M10 10.7898C9.9 10.7898 9.80007 10.77 9.70007 10.73C9.41007 10.61 9.21997 10.32 9.21997 10V3.85986C9.21997 3.42986 9.57001 3.06982 10.01 3.06982C10.45 3.06982 10.8 3.41986 10.8 3.85986V8.09985L12.77 6.12988C13.08 5.81988 13.57 5.81988 13.88 6.12988C14.19 6.43988 14.19 6.92999 13.88 7.23999L10.5701 10.5498C10.4201 10.6998 10.22 10.7798 10.01 10.7798L10 10.7898Z" fill="#7A7A7A"/>
</svg>
