<svg width="20" height="20" viewBox="0 0 20 20" fill="none" xmlns="http://www.w3.org/2000/svg">
<path d="M10 20C4.49 20 0 15.51 0 10C0 4.49 4.49 0 10 0C15.51 0 20 4.49 20 10C20 15.51 15.51 20 10 20ZM10 1.57007C5.35 1.57007 1.57007 5.35 1.57007 10C1.57007 14.65 5.35 18.4302 10 18.4302C14.65 18.4302 18.4301 14.65 18.4301 10C18.4301 5.35 14.65 1.57007 10 1.57007Z" fill="#7A7A7A"/>
<path d="M10 10.78C9.9 10.78 9.80007 10.7602 9.70007 10.7202C9.41007 10.6002 9.21997 10.3102 9.21997 9.99023V3.8501C9.21997 3.4201 9.57001 3.06006 10.01 3.06006C10.45 3.06006 10.8 3.4101 10.8 3.8501V8.09009L12.77 6.12012C13.08 5.81012 13.57 5.81012 13.88 6.12012C14.19 6.43012 14.19 6.92022 13.88 7.23022L10.5701 10.54C10.4201 10.69 10.22 10.77 10.01 10.77L10 10.78Z" fill="#7A7A7A"/>
</svg>
