<svg width="79" height="49" viewBox="0 0 79 49" fill="none" xmlns="http://www.w3.org/2000/svg">
<path d="M57.29 27.5C56.74 26.92 56.8401 25.89 56.8401 25.23V22.7798H66.6001V18.48H52.29V28.2998C52.29 28.2998 52.22 30.2098 53.47 31.5098C54.28 32.3598 55.47 32.7896 57 32.7896H66.5901V28.2397H59.1301C58.3101 28.2397 57.72 27.96 57.28 27.5H57.29Z" fill="white"/>
<path d="M9.92993 22.6499H15.49V18.48H0.420166V22.6499H5.71997L0 28.1997L3.08008 31.2896L6.17993 28.1797L7.92017 26.2998L9.75 28.1997L12.8301 31.2798L15.9202 28.1997L9.92993 22.6499Z" fill="white"/>
<path d="M34.97 31.2896C38.73 31.2896 41.79 28.2297 41.79 24.4697C41.79 20.7097 38.73 17.6499 34.97 17.6499C31.21 17.6499 28.1501 20.7097 28.1501 24.4697C28.1501 28.2297 31.21 31.2896 34.97 31.2896ZM34.97 21.5698C36.57 21.5698 37.8701 22.8697 37.8701 24.4697C37.8701 26.0697 36.57 27.3696 34.97 27.3696C33.37 27.3696 32.0701 26.0697 32.0701 24.4697C32.0701 22.8697 33.37 21.5698 34.97 21.5698Z" fill="white"/>
<path d="M40.6001 34.1699H40.5601H27.8301V38.5298L40.4202 38.5898C40.4902 38.5898 40.5799 38.5396 40.6799 38.5396C41.7699 38.5396 44.5301 38.3296 46.6301 36.3496C47.6801 35.3596 48.9399 33.5199 48.9399 30.4399V18.4897H44.5801V30.4399C44.5801 31.6799 44.2801 32.5697 43.6501 33.1597C42.6201 34.1497 40.89 34.1797 40.7 34.1797C40.66 34.1797 40.6301 34.1797 40.6001 34.1797V34.1699Z" fill="white"/>
<path d="M20.3901 18.48V22.7695H16.22V27.1099H20.3901V34.0796H17.3601C13.2901 34.0796 9.97998 37.39 9.97998 41.46C9.97998 45.53 13.2901 48.8398 17.3601 48.8398C21.4301 48.8398 24.74 45.53 24.74 41.46V18.48H20.3801H20.3901ZM20.3901 38.7598V41.4497C20.3901 43.1197 19.0301 44.48 17.3601 44.48C15.6901 44.48 14.3301 43.1197 14.3301 41.4497C14.3301 39.7797 15.6901 38.4199 17.3601 38.4199H20.3901V38.75V38.7598Z" fill="white"/>
<path d="M78.1201 22.7695H74V18.48H69.6401V34.0698H66.6101C62.5401 34.0698 59.23 37.3797 59.23 41.4497C59.23 45.5197 62.5401 48.8296 66.6101 48.8296C70.6801 48.8296 73.99 45.5197 73.99 41.4497V27.0996H78.1101V22.7598L78.1201 22.7695ZM69.6401 38.7598V41.4497C69.6401 43.1197 68.2801 44.48 66.6101 44.48C64.9401 44.48 63.5801 43.1197 63.5801 41.4497C63.5801 39.7797 64.9401 38.4199 66.6101 38.4199H69.6401V38.75V38.7598Z" fill="white"/>
<path d="M46.3401 16.1699L37.28 7.10986L40.3401 4.05957L46.3401 10.0596L56.4001 0L59.46 3.05957L46.3401 16.1699Z" fill="#FFF11D"/>
</svg>
